<?xml version="1.0" encoding="utf-8"?>
<!-- Generator: Adobe Illustrator 26.5.0, SVG Export Plug-In . SVG Version: 6.00 Build 0)  -->
<svg version="1.1" id="Layer_1" xmlns="http://www.w3.org/2000/svg" xmlns:xlink="http://www.w3.org/1999/xlink" x="0px" y="0px"
	 viewBox="0 0 1000 1000" style="enable-background:new 0 0 1000 1000;" xml:space="preserve">
<style type="text/css">
	.st0{fill:#FFFFFF;}
</style>
<g>
	<path class="st0" d="M640.37,833.78c44.7-18.29,84.75-45.06,119.06-79.59c45.41-45.7,77.79-102.69,93.62-164.8l3.63-14.25
		c0.99-3.87-0.59-7.95-3.93-10.14l-12.29-8.08c-6.72-4.42-13.04-9.56-18.79-15.28h0c-22.94-22.79-35.4-52.86-35.5-84.53
		c-0.02-6.01,0.41-12.09,1.3-18.18v0c2.99-20.55-15.3-37.86-35.65-33.72h0c-43.16,8.76-87.53-4.51-118.71-35.49
		c-27.26-27.08-41.23-64.62-38.33-103l1.31-17.4c0.34-4.56-2.66-8.71-7.1-9.8l-16.94-4.18c-7.88-1.94-15.11-6.02-20.92-11.79
		c-11.92-11.84-16.25-29.19-11.32-45.28l7.99-26.06c1.82-5.94-2.54-11.98-8.75-12.12l-27.25-0.61
		c-48.39-1.09-95.66,7.32-140.51,24.98c-46.45,18.3-87.98,45.66-123.44,81.34c-34.31,34.52-60.83,74.75-78.84,119.56
		c-17.39,43.27-26.13,88.94-25.98,135.77c0.15,46.82,9.17,92.44,26.83,135.6c18.29,44.7,45.07,84.75,79.59,119.06
		c34.52,34.31,74.75,60.83,119.56,78.84c43.27,17.39,88.94,26.13,135.77,25.98C551.59,860.47,597.21,851.44,640.37,833.78z
		 M291.74,713.23c-56.96-56.6-88.46-131.99-88.71-212.29c-0.25-80.3,30.78-155.89,87.38-212.84
		c51.01-51.33,116.74-81.82,187.75-87.68c2.05,24.42,12.64,47.76,30.68,65.69c7.62,7.57,16.3,13.89,25.74,18.78
		c2.04,47.8,21.91,93.28,56.24,127.39c36.49,36.27,85.38,55.88,135.78,55.58c0.96,14.99,3.76,29.86,8.37,44.11
		c8.76,27.08,24.12,52.05,44.42,72.22c0,0,0,0,0,0c3.23,3.21,6.58,6.3,10.04,9.26c-14.5,44.39-39.34,85.03-72.55,118.44
		c-56.6,56.96-131.99,88.46-212.29,88.71C424.28,800.86,348.7,769.83,291.74,713.23z"/>
	
		<ellipse transform="matrix(1 -3.127911e-03 3.127911e-03 1 -1.4574 0.9221)" class="st0" cx="294.07" cy="466.4" rx="44.22" ry="44.22"/>
	
		<ellipse transform="matrix(1 -3.127907e-03 3.127907e-03 1 -1.1179 1.2585)" class="st0" cx="401.78" cy="358.01" rx="44.22" ry="44.22"/>
	
		<ellipse transform="matrix(1 -3.127893e-03 3.127893e-03 1 -1.654 1.8342)" class="st0" cx="585.57" cy="529.69" rx="36.94" ry="36.94"/>
	<circle class="st0" cx="594.7" cy="677.25" r="27.8"/>
	
		<ellipse transform="matrix(1 -3.127906e-03 3.127906e-03 1 -1.5949 1.4339)" class="st0" cx="457.63" cy="510.62" rx="31.27" ry="31.27"/>
	
		<ellipse transform="matrix(1 -3.127907e-03 3.127907e-03 1 -1.9605 1.1685)" class="st0" cx="372.58" cy="627.37" rx="58.84" ry="58.84"/>
</g>
</svg>
